<svg width="184" height="184" viewBox="0 0 184 184" fill="none" xmlns="http://www.w3.org/2000/svg">
<rect width="184" height="184" fill="#005FAB"/>
<path d="M158 44.6917V44H138.425C130.412 44 126.871 44.8348 121.401 50.3925C112.342 59.582 108.158 64.8534 96.2422 81.4468L92 87.1841C99.8168 91.883 103.63 98.6046 103.63 108.061C103.63 108.147 103.617 108.22 103.617 108.314C109.85 117.283 116.675 125.835 124.048 133.916C128.58 138.306 134.626 140.837 140.97 141C149.818 141 154.178 137.532 157.136 126.53C150.122 124.998 147.574 122.907 140.528 115.53C132.645 107.319 126.182 97.579 119.546 88.3815C129.414 75.4471 145.745 56.2347 158 44.6917Z" fill="white"/>
<path d="M61.413 142C40.0682 142 28.5389 133.964 28.5389 120.26V110.837H29.2611C35.3002 116.926 47.9273 120.529 59.0089 120.529C71.3968 120.529 75.3111 117.619 75.3111 111.243C75.3111 105.422 69.991 103.489 55.2342 100.584C34.1688 96.4253 26 88.8121 26 74.2631C26 57.228 41.7501 42 66.3206 42C90.2026 42 99.3295 52.6594 99.3295 62.4864V72.6047H98.6426C92.1943 66.2274 80.5253 63.4692 70.397 63.4692C57.1857 63.4692 52.6889 66.9205 52.6889 72.3309C52.6889 76.6257 54.5441 78.9772 72.5234 82.5804C92.4607 86.592 102 94.6277 102 109.447C102 129.257 87.2433 141.997 61.4049 141.997" fill="white"/>
</svg>
